<svg xmlns="http://www.w3.org/2000/svg" width="16" height="10" viewBox="0 0 16 10"><path fill="#221F20" d="M.042 10V.03h15.999V10H.042zm15.966-.03v-.032.032zM.109 9.938h15.867L15.974.092H.109v9.846z"/><path fill="#D52237" d="M.076.061h3.982V9.97H.076z"/><path fill="#FFF" d="M4.058.061h7.967V9.97H4.058z"/><path fill="#D52237" d="M12.025.061h3.982V9.97h-3.982zM8.041 8.361h.126l-.04-1.563.117-.093c.525.059.997.11 1.523.17l-.135-.427a.195.195 0 0 1 .069-.203l1.526-1.208-.316-.145c-.139-.049-.1-.124-.05-.308l.231-.826-.884.182c-.087.013-.145-.041-.157-.092l-.115-.388-.7.765c-.1.123-.302.123-.239-.161l.3-1.55-.403.203c-.112.061-.226.071-.289-.038L8.041 1.67l-.563 1.009c-.063.109-.177.099-.289.038l-.401-.203.299 1.55c.063.284-.139.284-.239.161l-.701-.765-.114.388c-.013.051-.07.105-.157.092l-.886-.182.232.826c.05.184.089.259-.05.308l-.316.145 1.526 1.208c.06.047.091.128.07.203l-.134.427c.525-.06.996-.111 1.521-.17l.117.093-.04 1.563h.125z"/></svg>