<svg xmlns="http://www.w3.org/2000/svg" width="16" height="10" viewBox="0 0 16 10"><path fill="#221F20" d="M0 10.019V-.019h16v10.037H0zm15.967-.032v-.03.03zM.066 9.957h15.866V.043H.066v9.914z"/><path fill="#1B2F67" d="M.034.012h15.933v9.974H.034z"/><path fill="#FFF" d="M15.967 3.503H9.593V.012H6.406v3.491H.034v2.993h6.372v3.49h3.187v-3.49h6.374z"/><path fill="#FFF" d="M15.967 8.842L1.861.012H.034v1.155l14.09 8.819h1.843z"/><path fill="#FFF" d="M.034 8.842L14.138.012h1.829v1.155L1.875 9.986H.034z"/><path fill="#C31C2C" d="M15.967 4.127H8.93V.012H7.07v4.115H.034v1.745H7.07v4.114h1.86V5.872h7.037z"/><path fill="#C31C2C" d="M15.967 9.958v-.787l-4.283-2.675h-1.261zM15.967.012h-1.26L9.593 3.206v.297h.785l5.589-3.49zM5.579 6.496L.034 9.959v.027H1.25l5.156-3.219v-.271zM.034.019v.788l4.317 2.696h1.262z"/></svg>