<svg xmlns="http://www.w3.org/2000/svg" width="16" height="10" viewBox="0 0 16 10"><path fill="#221F20" d="M0 10.036V.035h16.005V10.036H0zm15.972-.031v-.03.03zM.067 9.975h15.872L15.938.097H.067v9.878z"/><path fill="#FFF" d="M.034 6.947h15.938v.764H.034z"/><path fill="#B41C31" d="M.034 6.183h15.938v.765H.034z"/><path fill="#FFF" d="M.034 8.477h15.938v.764H.034z"/><path fill="#B41C31" d="M.034 9.24h15.938v.765H.034zM.034 7.711h15.938v.766H.034z"/><path fill="#FFF" d="M.034 5.418h15.938v.765H.034z"/><path fill="#B41C31" d="M.034 3.124h15.938v.764H.034z"/><path fill="#FFF" d="M.034.83h15.938v.765H.034z"/><path fill="#B41C31" d="M.034 1.595h15.938v.765H.034zM.034 4.653h15.938v.765H.034zM.034.066h15.938V.83H.034z"/><path fill="#FFF" d="M.034 2.359h15.938v.765H.034zM.034 3.888h15.938v.765H.034z"/><path fill="#192F58" d="M.034.066h6.375v5.358H.034z"/><path fill="#FFF" d="M4.822.353l.044.126h.142l-.115.079.044.127-.115-.079-.116.079.044-.127-.115-.079h.142zM4.822 1.466l.044.126h.142l-.115.079.044.126-.115-.077-.116.077.044-.126-.115-.079h.142zM4.822 2.58l.044.126h.142l-.115.079.044.127-.115-.079-.116.079.044-.127-.115-.079h.142zM4.822 3.718l.044.128h.142l-.115.077.044.127-.115-.078-.116.078.044-.127-.115-.077h.142zM4.822 4.806l.044.126h.142l-.115.079.044.126-.115-.078-.116.078.044-.126-.115-.079h.142zM3.755.353l.044.126h.142l-.115.079.044.127-.115-.079-.116.079.044-.127-.115-.079h.142zM3.755 1.466l.044.126h.142l-.115.079.044.126-.115-.077-.116.077.044-.126-.115-.079h.142zM3.755 2.58l.044.126h.142l-.115.079.044.127-.115-.079-.116.079.044-.127-.115-.079h.142zM3.755 3.718l.044.128h.142l-.115.077.044.127-.115-.078-.116.078.044-.127-.115-.077h.142zM3.755 4.806l.044.126h.142l-.115.079.044.126-.115-.078-.116.078.044-.126-.115-.079h.142zM2.688.353l.043.126h.143l-.115.079.044.127-.115-.079-.116.079.045-.127-.116-.079h.143zM2.688 1.466l.043.126h.143l-.115.079.044.126-.115-.077-.116.077.045-.126-.116-.079h.143zM2.688 2.58l.043.126h.143l-.115.079.044.127-.115-.079-.116.079.045-.127-.116-.079h.143zM2.688 3.718l.043.128h.143l-.115.077.044.127-.115-.078-.116.078.045-.127-.116-.077h.143zM2.688 4.806l.043.126h.143l-.115.079.044.126-.115-.078-.116.078.045-.126-.116-.079h.143zM1.621.353l.044.126h.142l-.115.079.044.127-.115-.079-.116.079.044-.127-.115-.079h.142zM1.621 1.466l.044.126h.142l-.115.079.044.126-.115-.077-.116.077.044-.126-.115-.079h.142zM1.621 2.58l.044.126h.142l-.115.079.044.127-.115-.079-.116.079.044-.127-.115-.079h.142zM1.621 3.718l.044.128h.142l-.115.077.044.127-.115-.078-.116.078.044-.127-.115-.077h.142zM1.621 4.806l.044.126h.142l-.115.079.044.126-.115-.078-.116.078.044-.126-.115-.079h.142zM.554.353l.044.126H.74L.624.558l.044.127L.554.606.438.685.482.558.366.479h.143zM.554 1.466l.044.126H.74l-.116.079.044.126-.114-.077-.116.077.044-.126-.116-.079h.143zM.554 2.58l.044.126H.74l-.116.079.044.127-.114-.079-.116.079.044-.127-.116-.079h.143zM.554 3.718l.044.128H.74l-.116.077.044.127-.114-.078-.116.078.044-.127-.116-.077h.143zM.554 4.806l.044.126H.74l-.116.079.044.126-.114-.078-.116.078.044-.126-.116-.079h.143zM5.366.909l.044.127h.142l-.115.078.044.127-.115-.078-.116.078.044-.127-.115-.078h.143zM5.366 2.058l.044.127h.142l-.115.079.044.126-.115-.078-.116.078.044-.126-.115-.079h.143zM5.355 3.184l.044.127h.143l-.115.079.044.126-.116-.078-.115.078.044-.126-.116-.079h.143zM5.344 4.297l.045.127h.142l-.115.079.044.126-.116-.079-.115.079.044-.126-.115-.079H5.3zM4.299.909l.043.127h.143l-.115.078.044.127-.115-.078-.116.078.045-.127-.116-.078h.143zM4.299 2.058l.043.127h.143l-.115.079.044.126-.115-.078-.116.078.045-.126-.116-.079h.143zM4.289 3.184l.044.127h.142l-.116.079.044.126-.114-.078-.116.078.044-.126-.115-.079h.142zM4.277 4.297l.045.127h.142l-.115.079.044.126-.116-.079-.115.079.044-.126-.115-.079h.142zM3.231.869l.045.127h.141l-.114.078.045.127-.117-.078-.115.078.045-.127-.116-.078h.142zM3.231 2.019l.045.126h.141l-.114.078.045.127-.117-.078-.115.078.045-.127-.116-.078h.142zM3.221 3.145l.044.126h.142l-.115.079.044.126-.115-.078-.116.078.045-.126-.116-.079h.143zM3.21 4.258l.044.127h.143l-.115.077.044.128-.116-.078-.115.078.044-.128-.116-.077h.143zM2.165.858l.044.127h.142l-.115.079.044.126-.115-.078-.116.078.044-.126-.115-.079h.143zM2.165 2.007l.044.127h.142l-.115.078.044.127-.115-.078-.116.078.044-.127-.115-.078h.143zM2.154 3.134l.044.126h.142l-.114.078.043.127-.115-.078-.115.078.044-.127-.115-.078h.142zM2.143 4.247l.045.127h.142l-.116.078.044.127-.115-.079-.115.079.044-.127-.115-.078h.142zM1.097.838l.044.127h.143l-.115.079.044.126-.116-.079-.115.079.044-.126L.91.965h.143zM1.097 1.987l.044.126h.143l-.115.079.044.127-.116-.078-.115.078.044-.127-.116-.079h.143zM1.086 3.114l.045.127h.142l-.115.078.044.127-.116-.079-.115.079.044-.127-.116-.078h.144zM1.076 4.227l.044.127h.143l-.116.078.044.127-.115-.079-.116.079.045-.127-.115-.078h.142zM5.889.353l.044.126h.142L5.96.558l.044.127-.115-.079-.116.079.044-.127-.115-.079h.142zM5.889 1.466l.044.126h.142l-.115.079.044.126-.115-.077-.116.077.044-.126-.115-.079h.142zM5.889 2.58l.044.126h.142l-.115.079.044.127-.115-.079-.116.079.044-.127-.115-.079h.142zM5.889 3.718l.044.128h.142l-.115.077.044.127-.115-.078-.116.078.044-.127-.115-.077h.142zM5.889 4.806l.044.126h.142l-.115.079.044.126-.115-.078-.116.078.044-.126-.115-.079h.142z"/></svg>